<svg width="32" height="32" viewBox="0 0 32 32" fill="none" xmlns="http://www.w3.org/2000/svg">
  <!-- Gradient Definitions -->
  <defs>
    <linearGradient id="logo-gradient-1" x1="0%" y1="0%" x2="100%" y2="100%">
      <stop offset="0%" stop-color="#8B5CF6" />
      <stop offset="50%" stop-color="#3B82F6" />
      <stop offset="100%" stop-color="#06B6D4" />
    </linearGradient>
    <linearGradient id="logo-gradient-2" x1="100%" y1="0%" x2="0%" y2="100%">
      <stop offset="0%" stop-color="#EC4899" />
      <stop offset="50%" stop-color="#8B5CF6" />
      <stop offset="100%" stop-color="#3B82F6" />
    </linearGradient>
    <linearGradient id="logo-gradient-3" x1="0%" y1="100%" x2="100%" y2="0%">
      <stop offset="0%" stop-color="#10B981" />
      <stop offset="100%" stop-color="#06B6D4" />
    </linearGradient>
  </defs>

  <!-- Background with subtle gradient -->
  <rect x="0" y="0" width="32" height="32" rx="8" fill="white" />

  <!-- Fluid Shape 1 - Main D Shape -->
  <path
    d="M8 8 C8 8, 8 8, 14 8 C18 8, 22 11, 22 15 C22 19, 18 24, 14 24 C8 24, 8 24, 8 24 C8 24, 8 16, 8 16 C8 12, 8 8, 8 8 Z"
    fill="url(#logo-gradient-1)"
    opacity="0.9"
  />

  <!-- Fluid Shape 2 - Inner Flow -->
  <path
    d="M12 12 C12 12, 14 12, 16 12 C18 12, 20 14, 20 16 C20 18, 18 20, 16 20 C14 20, 12 20, 12 20 C12 20, 12 16, 12 16 C12 14, 12 12, 12 12 Z"
    fill="white"
    opacity="0.95"
  />

  <!-- Accent Elements -->
  <circle cx="22" cy="10" r="2" fill="url(#logo-gradient-2)" opacity="0.8" />
  <circle cx="10" cy="22" r="1.5" fill="url(#logo-gradient-3)" opacity="0.6" />
</svg>